<svg version="1.1" id="Layer_1" xmlns="http://www.w3.org/2000/svg" xmlns:xlink="http://www.w3.org/1999/xlink" x="0px" y="0px"
     width="100%" viewBox="0 0 1024 544" enable-background="new 0 0 1024 544" xml:space="preserve">
<defs>
    <linearGradient id="gold-gradient" x1="0%" y1="0%" x2="100%" y2="100%">
      <stop offset="0%" style="stop-color:#E6CFA1;stop-opacity:1" />
      <stop offset="50%" style="stop-color:#C0A060;stop-opacity:1" />
      <stop offset="100%" style="stop-color:#E6CFA1;stop-opacity:1" />
    </linearGradient>
</defs>
<path fill="url(#gold-gradient)" opacity="1.000000" stroke="none" 
    d="
M512.138306,421.311768 
    C493.925629,428.988342 476.760498,425.501953 460.125732,417.696198 
    C441.250885,408.839294 426.733154,394.805542 414.859253,377.876373 
    C413.984528,376.629242 413.203827,375.288879 413.393951,373.720825 
    C414.178955,367.246857 416.339142,361.252441 419.389465,355.563354 
    C422.488617,356.178741 422.871582,358.632721 423.865082,360.390625 
    C435.148315,380.356049 451.139465,395.119934 472.206085,404.266693 
    C480.106903,407.697144 488.337341,409.886658 496.996979,408.219208 
    C511.081573,405.507172 518.478760,392.367279 515.026489,377.174713 
    C467.899475,294.497925 454.140839,281.137695 441.078308,267.128387 
    C422.583527,247.293121 405.624329,226.409027 395.163574,200.981354 
    C387.815796,183.120544 383.059662,164.700378 382.657471,145.301514 
    C382.581757,141.649460 381.671692,139.038300 377.315765,139.247986 
    C376.083923,139.307281 374.881775,138.850143 374.606750,137.505829 
    C373.628021,132.721344 373.738342,127.910339 374.688873,123.137672 
    C374.911682,122.018913 376.052246,121.766930 377.087097,121.725815 
    C378.418457,121.672913 379.752625,121.679840 381.085602,121.679466 
    C431.418304,121.665413 481.751038,121.653618 532.083740,121.641174 
    C543.186279,121.638428 543.096313,121.639748 543.330933,132.626511 
    C543.414185,136.524109 543.274231,139.513184 538.076782,139.554153 
    C535.216431,139.576691 535.418396,142.449417 535.307190,144.611740 
    C534.110901,167.875381 528.226868,189.974915 518.107971,210.870514 
    C508.582336,230.541260 495.029449,247.419083 480.357513,263.467651 
    C477.406403,266.695618 475.428802,266.751740 472.377472,263.468719 
    C464.820496,255.337906 464.537811,255.360306 471.587219,247.272720 
    C482.130707,235.176376 491.853607,222.483902 499.520172,208.375504 
    C510.055267,188.988235 516.931396,168.435593 517.986328,146.190399 
    C518.261841,140.380814 517.402283,139.313751 511.717926,139.309601 
    C476.051697,139.283569 440.385254,139.350952 404.719452,139.227478 
    C400.497772,139.212875 399.104736,140.756058 399.312500,144.804092 
    C400.514313,168.221252 407.381378,189.944138 418.984314,210.184464 
    C430.849274,230.881912 446.646027,248.460938 463.230408,265.430359 
    C480.237610,282.832336 497.096985,300.398682 509.928162,321.305908 
    C520.374207,338.326782 528.712097,356.233917 531.844788,376.138550 
    C534.202209,391.117035 532.338867,405.087891 520.442209,416.090179 
    C518.098633,418.257538 515.518005,420.065643 512.138306,421.311768 
z"/>
<path fill="url(#gold-gradient)" opacity="1.000000" stroke="none" 
    d="
M595.855103,398.891602 
    C572.588623,416.433777 535.897217,427.396545 524.013184,424.169617 
    C527.019592,420.460480 530.465332,417.256744 532.588562,413.336670 
    C535.544983,407.878448 539.823547,405.591675 545.611145,403.928680 
    C578.980835,394.340332 604.122498,373.962006 622.189209,344.483704 
    C632.263123,328.046661 638.806641,310.381683 640.992065,291.243225 
    C645.088196,255.371948 636.024658,222.902939 614.862793,193.794785 
    C599.644714,172.862335 579.472778,158.362686 555.427063,149.151260 
    C552.455933,148.013077 551.106689,146.564560 551.532410,143.296783 
    C551.874634,140.669846 551.792358,137.971054 551.713440,135.309647 
    C551.590820,131.178406 553.107910,130.080460 557.203552,131.331223 
    C568.611755,134.815109 579.236206,139.964722 589.209656,146.352493 
    C624.034058,168.656830 646.025269,200.409790 655.140076,240.423050 
    C666.479980,290.204285 655.088989,335.159912 622.750793,374.609802 
    C615.147278,383.885498 606.103943,391.861267 595.855103,398.891602 
z"/>
<path fill="url(#gold-gradient)" opacity="1.000000" stroke="none" 
    d="
M439.641479,307.628662 
    C424.533386,327.087158 411.229645,347.161896 405.013000,371.029938 
    C402.244751,381.658234 400.388458,392.466858 400.191284,403.523468 
    C400.121796,407.421478 401.518036,409.126221 405.424408,408.707733 
    C406.412079,408.601898 407.421173,408.697815 408.420410,408.697723 
    C432.924438,408.695374 432.925781,408.693481 452.122070,422.939636 
    C452.501709,423.221375 452.736633,423.698120 453.058685,424.108887 
    C452.145355,425.999451 450.430817,425.269196 449.100220,425.273071 
    C426.117584,425.340210 403.134216,425.268402 380.152435,425.427277 
    C376.067505,425.455505 374.268005,424.146332 374.683411,419.991608 
    C374.864777,418.177917 374.821167,416.322723 374.687531,414.500458 
    C374.419189,410.841522 375.099426,408.326050 379.683258,408.529083 
    C383.154053,408.682861 382.760590,405.736633 382.895874,403.459198 
    C383.917786,386.258453 387.200317,369.517639 392.881348,353.235626 
    C400.742188,330.706238 413.972839,311.429565 429.027527,293.249268 
    C432.106659,289.530914 435.337952,285.938995 438.457977,282.253967 
    C440.236786,280.153015 442.018860,280.028717 443.927582,282.029785 
    C444.042480,282.150238 444.168274,282.260498 444.280426,282.383362 
    C454.472870,293.549042 454.955719,289.963715 445.337433,300.859192 
    C443.464722,302.980560 441.684631,305.183624 439.641479,307.628662 
z"/>
<path fill="url(#gold-gradient)" opacity="1.000000" stroke="none" 
    d="
M506.850159,391.406799 
    C504.734802,396.611206 500.915283,398.839752 495.925751,399.458496 
    C490.229828,400.164856 484.563629,399.875641 479.190613,397.912567 
    C458.360382,390.301971 442.466217,376.823578 431.505463,357.484558 
    C429.522247,353.985413 430.339874,351.728485 433.260437,349.399719 
    C440.413177,343.696442 447.610687,338.036926 452.744141,330.231262 
    C455.113800,326.628021 456.934265,322.783630 458.399048,318.786072 
    C459.034119,318.978394 459.553833,318.999451 459.610474,319.172272 
    C464.365021,333.675842 475.832123,342.308563 487.307800,350.951904 
    C497.852997,358.894409 506.038147,368.348541 507.740631,382.162720 
    C508.123260,385.267426 507.467987,388.098297 506.850159,391.406799 
z"/>
<path fill="url(#gold-gradient)" opacity="1.000000" stroke="none" 
    d="
M488.853821,193.987473 
    C492.370087,192.142685 495.539764,190.461151 498.738983,188.763931 
    C499.895386,190.821533 498.795990,192.315704 498.144073,193.739441 
    C489.178497,213.320435 476.458801,230.293945 461.795410,245.914825 
    C459.903137,247.930679 458.234100,248.650833 456.024841,246.220963 
    C441.628296,230.386719 428.677307,213.560364 419.858307,193.884293 
    C416.598145,186.610428 417.732391,185.155060 425.855499,184.638077 
    C434.901825,184.062347 443.348694,186.149582 451.553406,189.610245 
    C457.375580,192.065994 463.129150,194.566864 469.413025,195.817551 
    C476.026337,197.133789 482.291168,196.403824 488.853821,193.987473 
z"/>
<path fill="url(#gold-gradient)" opacity="1.000000" stroke="none" 
    d="
M496.481506,255.718979 
    C498.456787,253.202042 500.300018,252.796341 502.639282,254.729492 
    C504.942841,256.633118 507.436493,258.307953 509.860321,260.064423 
    C513.913696,263.001740 518.696045,262.843842 522.558105,259.579437 
    C540.205383,244.663010 557.638672,229.489868 575.799316,215.190155 
    C577.590759,213.779556 579.211243,212.018112 581.704773,211.551132 
    C582.682495,213.503265 580.971191,214.321884 580.123413,215.295120 
    C564.400818,233.345001 549.216736,251.866669 532.876526,269.374634 
    C530.956970,271.431335 530.147156,273.858826 529.516907,276.471741 
    C528.041321,282.589111 524.623230,285.773438 519.120056,286.275513 
    C513.654358,286.774139 508.087585,283.916992 506.800293,278.221130 
    C505.329193,271.711731 501.042786,267.576508 497.094635,262.974640 
    C495.216003,260.784882 493.841125,258.652832 496.481506,255.718979 
z"/>
<path fill="url(#gold-gradient)" opacity="1.000000" stroke="none" 
    d="
M626.855957,279.289215 
    C621.876099,279.282684 617.376038,279.229126 612.877014,279.274017 
    C609.837891,279.304352 607.209961,279.311401 607.376282,274.938751 
    C607.527649,270.958130 607.998108,268.168091 613.118286,268.605621 
    C617.749756,269.001373 622.444153,268.708588 627.109741,268.642212 
    C630.392883,268.595551 633.360718,268.245667 633.427917,273.238220 
    C633.490479,277.884735 631.825134,279.736969 626.855957,279.289215 
z"/>
<path fill="url(#gold-gradient)" opacity="1.000000" stroke="none" 
    d="
M604.335205,224.452332 
    C603.013672,225.223694 602.009460,225.801025 601.020691,226.403824 
    C598.867432,227.716583 597.275208,227.099182 596.069824,225.016403 
    C594.880066,222.960556 594.300415,221.047714 596.913086,219.551773 
    C601.651245,216.838882 606.378235,214.105560 611.078857,211.328354 
    C612.978333,210.206146 614.466980,210.272324 615.620361,212.356537 
    C616.700256,214.307770 617.920410,216.307266 615.323425,217.936920 
    C611.822693,220.133728 608.219055,222.166611 604.335205,224.452332 
z"/>
<path fill="url(#gold-gradient)" opacity="1.000000" stroke="none" 
    d="
M567.264221,377.690918 
    C564.977722,373.609100 562.902893,369.826965 560.776001,366.074371 
    C559.604004,364.006592 559.705078,362.344879 561.930847,361.042755 
    C564.158997,359.739197 566.039856,359.845703 567.448120,362.177887 
    C569.850464,366.156403 572.215088,370.157715 574.583862,374.156403 
    C576.065063,376.656830 576.849060,378.808044 573.435242,380.722778 
    C569.835938,382.741608 568.699097,380.535065 567.264221,377.690918 
z"/>
<path fill="url(#gold-gradient)" opacity="1.000000" stroke="none" 
    d="
M574.041748,175.002777 
    C571.652100,179.027130 569.429932,182.728119 567.235352,186.445435 
    C566.076782,188.407898 564.741028,189.457626 562.396484,188.039124 
    C560.199280,186.709808 559.327454,185.160156 560.657654,182.709808 
    C562.794800,178.773041 564.817688,174.774185 566.962097,170.841522 
    C568.141602,168.678452 569.055115,166.188477 572.549805,167.965561 
    C575.955750,169.697464 576.293579,171.791611 574.041748,175.002777 
z"/>
<path fill="url(#gold-gradient)" opacity="1.000000" stroke="none" 
    d="
M600.778137,330.221832 
    C599.309204,329.365906 598.098938,328.776276 597.054626,327.971313 
    C595.214539,326.552917 595.586914,324.841980 596.639221,323.105743 
    C597.636963,321.459595 598.954041,320.694702 600.798950,321.675629 
    C605.786377,324.327484 610.758972,327.007477 615.721497,329.705688 
    C618.682129,331.315430 617.625061,333.394989 616.441040,335.593170 
    C615.071167,338.136292 613.381775,337.514648 611.469299,336.384705 
    C608.035095,334.355682 604.566040,332.385773 600.778137,330.221832 
z"/>
</svg>